<svg xmlns="http://www.w3.org/2000/svg" viewBox="0 0 900 620" role="img" aria-label="Mock dorm photo with warm red accents">
  <defs>
    <linearGradient id="g" x1="0" y1="0" x2="1" y2="1">
      <stop offset="0" stop-color="#fff4f0"/>
      <stop offset="1" stop-color="#e9f0f8"/>
    </linearGradient>
  </defs>
  <rect width="900" height="620" fill="url(#g)"/>
  <path d="M0 414h900v206H0z" fill="#d0bda8"/>
  <path d="M0 0h900v424H0z" fill="#fffaf7"/>
  <path d="M514 345h298v76H514z" fill="#a23a36"/>
  <path d="M531 282h264a28 28 0 0 1 28 28v49H503v-49a28 28 0 0 1 28-28z" fill="#ffffff" stroke="#d2c7be" stroke-width="8"/>
  <path d="M537 418h279v96H537z" fill="#263e5a"/>
  <path d="M131 240h172v274H131z" fill="#f3eadc" stroke="#c4b6a8" stroke-width="8"/>
  <path d="M160 269h114v164H160z" fill="#ffd5cf"/>
  <path d="M368 158h198v108H368z" fill="#fff" stroke="#d2c7be" stroke-width="8"/>
  <path d="M394 183h146v57H394z" fill="#a23a36" opacity=".18"/>
  <path d="M673 120c56 14 91 70 77 126-56-14-91-70-77-126z" fill="#a23a36" opacity=".12"/>
  <text x="48" y="586" font-family="Inter, Arial" font-size="30" font-weight="800" fill="#a23a36" opacity=".45">MOCK ROOM PHOTO</text>
</svg>
