<svg xmlns="http://www.w3.org/2000/svg" viewBox="0 0 900 620" role="img" aria-label="Mock dorm room photo with blue accents">
  <defs>
    <linearGradient id="g" x1="0" y1="0" x2="1" y2="1">
      <stop offset="0" stop-color="#f7fbff"/>
      <stop offset="1" stop-color="#dce9f5"/>
    </linearGradient>
    <linearGradient id="wall" x1="0" y1="0" x2="0" y2="1">
      <stop offset="0" stop-color="#edf5fb"/>
      <stop offset="1" stop-color="#ffffff"/>
    </linearGradient>
  </defs>
  <rect width="900" height="620" fill="url(#g)"/>
  <path d="M0 420h900v200H0z" fill="#d8cfc1"/>
  <path d="M0 0h900v430H0z" fill="url(#wall)"/>
  <path d="M87 458h305v76H87z" fill="#203a5c"/>
  <path d="M112 370h250a25 25 0 0 1 25 25v70H87v-70a25 25 0 0 1 25-25z" fill="#f7f3ea" stroke="#c8c0b2" stroke-width="6"/>
  <path d="M135 336h98a18 18 0 0 1 18 18v43H117v-43a18 18 0 0 1 18-18z" fill="#ffffff"/>
  <path d="M260 336h75a18 18 0 0 1 18 18v43h-111v-43a18 18 0 0 1 18-18z" fill="#d7e6f5"/>
  <path d="M585 252h166v282H585z" fill="#f7f3ea" stroke="#b8c3cf" stroke-width="7"/>
  <path d="M612 285h112v160H612z" fill="#bee0f2"/>
  <path d="M585 534h166" stroke="#b8c3cf" stroke-width="7"/>
  <path d="M466 208h78v326h-78z" fill="#f4efe7" stroke="#b6aca0" stroke-width="7"/>
  <circle cx="523" cy="380" r="7" fill="#00356b"/>
  <path d="M105 140h176v120H105z" fill="#fff" stroke="#c5d4e2" stroke-width="7"/>
  <path d="M126 165h134v70H126z" fill="#00356b" opacity=".14"/>
  <path d="M668 198c35 0 63 28 63 63v12H605v-12c0-35 28-63 63-63z" fill="#00356b" opacity=".12"/>
  <text x="48" y="586" font-family="Inter, Arial" font-size="30" font-weight="800" fill="#00356b" opacity=".45">MOCK ROOM PHOTO</text>
</svg>
